<svg xmlns="http://www.w3.org/2000/svg" id="Logo_-_Top" width="107" height="29" viewBox="0 0 107 29">
    <defs>
        <linearGradient id="linear-gradient" x2="1" y1=".5" y2=".5" gradientUnits="objectBoundingBox">
            <stop offset="0" stop-color="#2dd8db"/>
            <stop offset="1" stop-color="#05d3f7"/>
            <stop offset="1" stop-color="#17b3dd"/>
        </linearGradient>
        <linearGradient id="linear-gradient-2" x2="1" y1=".5" y2=".5" gradientUnits="objectBoundingBox">
            <stop offset="0" stop-color="#11acd8"/>
            <stop offset="1" stop-color="#03b4eb"/>
        </linearGradient>
        <style>
            .cls-3{fill:url(#linear-gradient-2)}
        </style>
    </defs>
    <g id="Simbols">
        <path id="패스_1" fill="url(#linear-gradient)" d="M113.556 317.155a.866.866 0 0 0 .883.847h6.624v20.976a.816.816 0 0 0 .833.8h10.57v-7.225h-3a.853.853 0 0 1-.87-.835v-12.88a.853.853 0 0 1 .87-.835h3v-7.225h-18.91z" transform="translate(-113.556 -310.777)"/>
        <path id="패스_2" d="M215.376 392.426h-7.061v3a.853.853 0 0 1-.87.835h-2.715v7.225h10.37a.731.731 0 0 0 .746-.715v-9.895a.462.462 0 0 0-.47-.45z" class="cls-3" transform="translate(-183.847 -374.488)"/>
        <path id="패스_3" d="M214.964 310.777H204.73V318h2.714a.853.853 0 0 1 .87.835v3.127h7.061a.462.462 0 0 0 .471-.452v-9.887a.866.866 0 0 0-.882-.846z" class="cls-3" transform="translate(-183.847 -310.777)"/>
    </g>
    <g id="Wordmark" transform="translate(43.084)">
        <path id="패스_4" fill="#03b4eb" d="M294.757 312.459v4.483h-11.935v3.414h11.6v4.484h-11.6v2.468q0 1.194 1.252 1.193h11.767v4.484h-15.163a3.389 3.389 0 0 1-2.292-.905 2.885 2.885 0 0 1-1.03-2.262v-17.359zm4.8 25.257q.083-.576.208-1.646a20.954 20.954 0 0 0 .125-2.427v-22.624h5.467v23.673a15.743 15.743 0 0 1-.1 1.728q-.105.925-.313 1.892a7.066 7.066 0 0 1-.584 1.707z" transform="translate(-277.438 -311.019)"/>
        <path id="패스_5" fill="#14d5ed" d="M388.105 319.575q.042-.324.063-.688t.021-.77v-1.175h-9.674v-4.483h15.143v5.224a15.89 15.89 0 0 1-1.22 6.54 13.278 13.278 0 0 1-3.344 4.587 17.5 17.5 0 0 1-4.984 3.044 38.974 38.974 0 0 1-6.1 1.913v-4.977a26.238 26.238 0 0 0 4.837-1.6 8.748 8.748 0 0 0 3.743-3.126h-8.076v-4.484zm7.4 17.318a12.9 12.9 0 0 0 .231-1.6q.021-.494.021-.864v-23.41h5.384v8.762h2.482v-8.762h5.384v23.673a15.4 15.4 0 0 1-.105 1.728 19.016 19.016 0 0 1-.315 1.892 7.038 7.038 0 0 1-.589 1.707l-4.711-2.3q.084-.576.21-1.646a20.889 20.889 0 0 0 .126-2.427v-9.008h-2.482v9.662q0 .864-.021 1.481c-.015.411-.035.8-.063 1.152a8.731 8.731 0 0 1-.148 1.049q-.105.515-.274 1.214z" transform="translate(-345.094 -311.019)"/>
    </g>
</svg>
