<?xml version="1.0" encoding="utf-8"?>
<!-- Generator: Adobe Illustrator 16.0.0, SVG Export Plug-In . SVG Version: 6.00 Build 0)  -->
<!DOCTYPE svg PUBLIC "-//W3C//DTD SVG 1.1//EN" "http://www.w3.org/Graphics/SVG/1.1/DTD/svg11.dtd">
<svg version="1.1" id="Layer_1" xmlns="http://www.w3.org/2000/svg" x="0px" y="0px"
     width="143px" height="32px" viewBox="0.347 0 143 32" enable-background="new 0.347 0 143 32" xml:space="preserve">
<g>
	<polygon fill="#FFFFFF" points="93.627,0.006 86.431,31.995 92.921,31.995 93.437,29.643 99.791,0.006 	"/>
	<polygon fill="#FFFFFF" points="105.952,0.006 101.99,0.023 100.897,5.368 100.918,5.368 104.163,20.562 97.795,20.562 
		96.644,26.208 105.388,26.208 106.658,31.995 113.149,31.995 	"/>
	<polygon fill="#FFFFFF" points="46.413,0.006 39.217,31.995 45.708,31.995 46.224,29.643 52.575,0.006 	"/>
	<polygon fill="#FFFFFF" points="54.775,0.023 53.683,5.368 53.705,5.368 56.951,20.562 50.582,20.562 49.43,26.208 58.174,26.208 
		59.443,31.995 65.936,31.995 58.737,0.006 	"/>
	<polygon fill="#FFFFFF" points="87.95,0.006 64.43,0.006 64.43,5.745 72.99,5.745 72.99,31.995 79.482,31.995 79.482,5.745 
		87.95,5.745 	"/>
	<polygon fill="#FFFFFF" points="24.755,0 17.226,0 11.791,25.024 8.136,8.775 6.162,0.006 0.006,0.006 0,0 0.001,0.006 0,0.006 
		0.012,0.064 6.351,29.643 6.868,31.995 13.359,31.995 15.953,32 20.989,7.671 25.991,31.84 28.93,19.238 	"/>
	<polygon fill="#FFFFFF" points="28.516,31.995 29.032,29.643 34.381,5.681 35.656,0.006 41.819,0.006 35.467,29.643 34.952,31.995 
		30.381,31.995 30.379,32 	"/>
	<polygon fill="#FFFFFF" points="137.533,0.006 130.336,31.995 136.828,31.995 137.344,29.643 143.694,0.006 	"/>
	<polygon fill="#FFFFFF" points="119.635,31.995 120.151,29.643 125.5,5.681 126.776,0.006 132.938,0.006 126.586,29.643 
		126.07,31.995 121.5,31.995 121.5,32 	"/>
</g>
</svg>
